<svg xmlns="http://www.w3.org/2000/svg" xmlns:xlink="http://www.w3.org/1999/xlink" width="500" zoomAndPan="magnify" viewBox="0 0 375 374.999991" height="500" preserveAspectRatio="xMidYMid meet" version="1.0"><defs><g/><clipPath id="a1a91669fc"><path d="M 63.75 0 L 311.25 0 C 328.15625 0 344.371094 6.714844 356.328125 18.671875 C 368.285156 30.628906 375 46.84375 375 63.75 L 375 311.25 C 375 328.15625 368.285156 344.371094 356.328125 356.328125 C 344.371094 368.285156 328.15625 375 311.25 375 L 63.75 375 C 28.542969 375 0 346.457031 0 311.25 L 0 63.75 C 0 28.542969 28.542969 0 63.75 0 Z M 63.75 0 " clip-rule="nonzero"/></clipPath></defs><rect x="-37.5" width="450" fill="#ffffff" y="-37.499999" height="449.999989" fill-opacity="1"/><rect x="-37.5" width="450" fill="#ffffff" y="-37.499999" height="449.999989" fill-opacity="1"/><g clip-path="url(#a1a91669fc)"><rect x="-37.5" width="450" fill="#141414" y="-37.499999" height="449.999989" fill-opacity="1"/></g><g fill="#b4d60e" fill-opacity="1"><g transform="translate(77.132812, 237.749984)"><g><path d="M 79.375 -60.609375 C 85.851562 -53.503906 89.09375 -44.820312 89.09375 -34.5625 C 89.09375 -24.300781 85.851562 -15.632812 79.375 -8.5625 C 72.894531 -1.5 64.660156 2.03125 54.671875 2.03125 C 45.492188 2.03125 37.9375 -1.253906 32 -7.828125 L 31.71875 -7.828125 L 31.71875 0 L 8.09375 0 L 8.09375 -116.09375 L 32 -116.09375 L 32 -62.640625 C 37.9375 -68.398438 45.492188 -71.28125 54.671875 -71.28125 C 64.660156 -71.28125 72.894531 -67.722656 79.375 -60.609375 Z M 59.265625 -22.875 C 62.234375 -25.894531 63.71875 -29.789062 63.71875 -34.5625 C 63.71875 -39.332031 62.164062 -43.242188 59.0625 -46.296875 C 55.957031 -49.359375 52.109375 -50.890625 47.515625 -50.890625 C 43.015625 -50.890625 39.210938 -49.359375 36.109375 -46.296875 C 33.003906 -43.242188 31.453125 -39.332031 31.453125 -34.5625 C 31.453125 -29.882812 32.957031 -26.015625 35.96875 -22.953125 C 38.988281 -19.890625 42.835938 -18.359375 47.515625 -18.359375 C 52.378906 -18.359375 56.296875 -19.863281 59.265625 -22.875 Z M 59.265625 -22.875 "/></g></g></g><g fill="#b4d60e" fill-opacity="1"><g transform="translate(169.337842, 237.749984)"><g><path d="M 78.171875 -31.3125 L 27.9375 -31.3125 C 27.9375 -26.457031 29.507812 -22.859375 32.65625 -20.515625 C 35.8125 -18.179688 39.238281 -17.015625 42.9375 -17.015625 C 46.800781 -17.015625 49.859375 -17.53125 52.109375 -18.5625 C 54.359375 -19.59375 56.925781 -21.640625 59.8125 -24.703125 L 77.078125 -16.0625 C 69.878906 -4 57.910156 2.03125 41.171875 2.03125 C 30.734375 2.03125 21.78125 -1.546875 14.3125 -8.703125 C 6.84375 -15.859375 3.109375 -24.476562 3.109375 -34.5625 C 3.109375 -44.644531 6.84375 -53.285156 14.3125 -60.484375 C 21.78125 -67.679688 30.734375 -71.28125 41.171875 -71.28125 C 52.148438 -71.28125 61.082031 -68.109375 67.96875 -61.765625 C 74.851562 -55.421875 78.296875 -46.351562 78.296875 -34.5625 C 78.296875 -32.9375 78.253906 -31.851562 78.171875 -31.3125 Z M 28.625 -44.546875 L 54.9375 -44.546875 C 54.40625 -48.148438 52.988281 -50.914062 50.6875 -52.84375 C 48.394531 -54.78125 45.445312 -55.75 41.84375 -55.75 C 37.882812 -55.75 34.734375 -54.710938 32.390625 -52.640625 C 30.054688 -50.578125 28.800781 -47.878906 28.625 -44.546875 Z M 28.625 -44.546875 "/></g></g></g><g fill="#b4d60e" fill-opacity="1"><g transform="translate(250.742866, 237.749984)"><g><path d="M 23.484375 -28.890625 C 27.804688 -28.890625 31.472656 -27.378906 34.484375 -24.359375 C 37.503906 -21.347656 39.015625 -17.679688 39.015625 -13.359375 C 39.015625 -9.128906 37.503906 -5.503906 34.484375 -2.484375 C 31.472656 0.523438 27.804688 2.03125 23.484375 2.03125 C 19.253906 2.03125 15.628906 0.523438 12.609375 -2.484375 C 9.597656 -5.503906 8.09375 -9.128906 8.09375 -13.359375 C 8.09375 -17.679688 9.597656 -21.347656 12.609375 -24.359375 C 15.628906 -27.378906 19.253906 -28.890625 23.484375 -28.890625 Z M 23.484375 -28.890625 "/></g></g></g></svg>