<svg xmlns="http://www.w3.org/2000/svg" xmlns:xlink="http://www.w3.org/1999/xlink" width="529" zoomAndPan="magnify" viewBox="0 0 396.75 97.5" height="130" preserveAspectRatio="xMidYMid meet" version="1.0"><defs><g/><clipPath id="3ff88561e2"><path d="M 14.003906 0 L 108.953125 0 L 108.953125 96.804688 L 14.003906 96.804688 Z M 14.003906 0 " clip-rule="nonzero"/></clipPath><clipPath id="53ca988359"><path d="M 32.660156 0 L 90.300781 0 C 95.246094 0 99.992188 1.964844 103.488281 5.464844 C 106.988281 8.960938 108.953125 13.707031 108.953125 18.65625 L 108.953125 78.089844 C 108.953125 83.039062 106.988281 87.78125 103.488281 91.28125 C 99.992188 94.78125 95.246094 96.746094 90.300781 96.746094 L 32.660156 96.746094 C 27.710938 96.746094 22.96875 94.78125 19.46875 91.28125 C 15.96875 87.78125 14.003906 83.039062 14.003906 78.089844 L 14.003906 18.65625 C 14.003906 13.707031 15.96875 8.960938 19.46875 5.464844 C 22.96875 1.964844 27.710938 0 32.660156 0 Z M 32.660156 0 " clip-rule="nonzero"/></clipPath></defs><g clip-path="url(#3ff88561e2)"><g clip-path="url(#53ca988359)"><path fill="#141414" d="M 14.003906 0 L 108.953125 0 L 108.953125 96.804688 L 14.003906 96.804688 Z M 14.003906 0 " fill-opacity="1" fill-rule="nonzero"/></g></g><g fill="#b4d60e" fill-opacity="1"><g transform="translate(32.415148, 60.668304)"><g><path d="M 20.890625 -15.953125 C 22.597656 -14.085938 23.453125 -11.800781 23.453125 -9.09375 C 23.453125 -6.394531 22.597656 -4.113281 20.890625 -2.25 C 19.191406 -0.394531 17.023438 0.53125 14.390625 0.53125 C 11.972656 0.53125 9.984375 -0.332031 8.421875 -2.0625 L 8.359375 -2.0625 L 8.359375 0 L 2.125 0 L 2.125 -30.5625 L 8.421875 -30.5625 L 8.421875 -16.5 C 9.984375 -18.007812 11.972656 -18.765625 14.390625 -18.765625 C 17.023438 -18.765625 19.191406 -17.828125 20.890625 -15.953125 Z M 15.609375 -6.015625 C 16.390625 -6.816406 16.78125 -7.84375 16.78125 -9.09375 C 16.78125 -10.351562 16.367188 -11.382812 15.546875 -12.1875 C 14.734375 -13 13.722656 -13.40625 12.515625 -13.40625 C 11.328125 -13.40625 10.320312 -13 9.5 -12.1875 C 8.6875 -11.382812 8.28125 -10.351562 8.28125 -9.09375 C 8.28125 -7.863281 8.675781 -6.84375 9.46875 -6.03125 C 10.257812 -5.226562 11.273438 -4.828125 12.515625 -4.828125 C 13.796875 -4.828125 14.828125 -5.222656 15.609375 -6.015625 Z M 15.609375 -6.015625 "/></g></g></g><g fill="#b4d60e" fill-opacity="1"><g transform="translate(56.693083, 60.668304)"><g><path d="M 20.578125 -8.25 L 7.359375 -8.25 C 7.359375 -6.96875 7.769531 -6.019531 8.59375 -5.40625 C 9.425781 -4.789062 10.328125 -4.484375 11.296875 -4.484375 C 12.316406 -4.484375 13.125 -4.617188 13.71875 -4.890625 C 14.3125 -5.160156 14.988281 -5.695312 15.75 -6.5 L 20.296875 -4.234375 C 18.398438 -1.054688 15.25 0.53125 10.84375 0.53125 C 8.09375 0.53125 5.734375 -0.410156 3.765625 -2.296875 C 1.796875 -4.179688 0.8125 -6.445312 0.8125 -9.09375 C 0.8125 -11.75 1.796875 -14.023438 3.765625 -15.921875 C 5.734375 -17.816406 8.09375 -18.765625 10.84375 -18.765625 C 13.726562 -18.765625 16.078125 -17.925781 17.890625 -16.25 C 19.703125 -14.582031 20.609375 -12.195312 20.609375 -9.09375 C 20.609375 -8.664062 20.597656 -8.382812 20.578125 -8.25 Z M 7.53125 -11.734375 L 14.46875 -11.734375 C 14.320312 -12.679688 13.945312 -13.410156 13.34375 -13.921875 C 12.738281 -14.429688 11.960938 -14.6875 11.015625 -14.6875 C 9.972656 -14.6875 9.144531 -14.410156 8.53125 -13.859375 C 7.914062 -13.316406 7.582031 -12.609375 7.53125 -11.734375 Z M 7.53125 -11.734375 "/></g></g></g><g fill="#b4d60e" fill-opacity="1"><g transform="translate(78.127334, 60.668304)"><g><path d="M 6.1875 -7.609375 C 7.320312 -7.609375 8.285156 -7.207031 9.078125 -6.40625 C 9.867188 -5.613281 10.265625 -4.648438 10.265625 -3.515625 C 10.265625 -2.398438 9.867188 -1.445312 9.078125 -0.65625 C 8.285156 0.132812 7.320312 0.53125 6.1875 0.53125 C 5.070312 0.53125 4.113281 0.132812 3.3125 -0.65625 C 2.519531 -1.445312 2.125 -2.398438 2.125 -3.515625 C 2.125 -4.648438 2.519531 -5.613281 3.3125 -6.40625 C 4.113281 -7.207031 5.070312 -7.609375 6.1875 -7.609375 Z M 6.1875 -7.609375 "/></g></g></g><g fill="#000000" fill-opacity="1"><g transform="translate(145.808031, 63.634446)"><g><path d="M 2.5 -34.46875 L 13.203125 -34.46875 C 16.429688 -34.46875 19.003906 -33.773438 20.921875 -32.390625 C 22.847656 -31.015625 23.8125 -28.785156 23.8125 -25.703125 C 23.8125 -22.242188 22.378906 -19.773438 19.515625 -18.296875 C 24.410156 -17.429688 26.859375 -14.535156 26.859375 -9.609375 C 26.859375 -6.710938 25.851562 -4.382812 23.84375 -2.625 C 21.84375 -0.875 19.085938 0 15.578125 0 L 2.5 0 Z M 10.359375 -20.96875 L 10.984375 -20.96875 C 12.742188 -20.96875 14.054688 -21.273438 14.921875 -21.890625 C 15.785156 -22.503906 16.21875 -23.507812 16.21875 -24.90625 C 16.21875 -27.238281 14.472656 -28.40625 10.984375 -28.40625 L 10.359375 -28.40625 Z M 10.359375 -6.0625 L 12.828125 -6.0625 C 16.671875 -6.0625 18.59375 -7.34375 18.59375 -9.90625 C 18.59375 -11.4375 18.109375 -12.535156 17.140625 -13.203125 C 16.179688 -13.867188 14.742188 -14.203125 12.828125 -14.203125 L 10.359375 -14.203125 Z M 10.359375 -6.0625 "/></g></g></g><g fill="#000000" fill-opacity="1"><g transform="translate(173.629497, 63.634446)"><g><path d="M 24.1875 -9.6875 L 8.65625 -9.6875 C 8.65625 -8.1875 9.140625 -7.070312 10.109375 -6.34375 C 11.085938 -5.625 12.144531 -5.265625 13.28125 -5.265625 C 14.476562 -5.265625 15.425781 -5.421875 16.125 -5.734375 C 16.820312 -6.054688 17.617188 -6.691406 18.515625 -7.640625 L 23.859375 -4.96875 C 21.628906 -1.238281 17.925781 0.625 12.75 0.625 C 9.507812 0.625 6.734375 -0.476562 4.421875 -2.6875 C 2.117188 -4.90625 0.96875 -7.570312 0.96875 -10.6875 C 0.96875 -13.8125 2.117188 -16.488281 4.421875 -18.71875 C 6.734375 -20.945312 9.507812 -22.0625 12.75 -22.0625 C 16.144531 -22.0625 18.90625 -21.078125 21.03125 -19.109375 C 23.164062 -17.148438 24.234375 -14.347656 24.234375 -10.703125 C 24.234375 -10.191406 24.21875 -9.851562 24.1875 -9.6875 Z M 8.859375 -13.78125 L 17 -13.78125 C 16.832031 -14.894531 16.394531 -15.75 15.6875 -16.34375 C 14.976562 -16.945312 14.066406 -17.25 12.953125 -17.25 C 11.722656 -17.25 10.742188 -16.925781 10.015625 -16.28125 C 9.296875 -15.644531 8.910156 -14.8125 8.859375 -13.78125 Z M 8.859375 -13.78125 "/></g></g></g><g fill="#000000" fill-opacity="1"><g transform="translate(198.819204, 63.634446)"><g/></g></g><g fill="#000000" fill-opacity="1"><g transform="translate(210.2235, 63.634446)"><g><path d="M 2.5 -34.46875 L 14.828125 -34.46875 C 18.140625 -34.46875 20.84375 -33.582031 22.9375 -31.8125 C 25.03125 -30.039062 26.078125 -27.515625 26.078125 -24.234375 C 26.078125 -21.703125 25.441406 -19.578125 24.171875 -17.859375 C 22.898438 -16.148438 21.179688 -14.945312 19.015625 -14.25 L 30.875 0 L 20.890625 0 L 10.359375 -13.625 L 10.359375 0 L 2.5 0 Z M 10.359375 -19.171875 L 11.28125 -19.171875 C 12.007812 -19.171875 12.625 -19.1875 13.125 -19.21875 C 13.625 -19.25 14.191406 -19.347656 14.828125 -19.515625 C 15.472656 -19.679688 15.988281 -19.914062 16.375 -20.21875 C 16.769531 -20.53125 17.101562 -20.976562 17.375 -21.5625 C 17.65625 -22.144531 17.796875 -22.851562 17.796875 -23.6875 C 17.796875 -24.519531 17.65625 -25.226562 17.375 -25.8125 C 17.101562 -26.40625 16.769531 -26.851562 16.375 -27.15625 C 15.988281 -27.46875 15.472656 -27.707031 14.828125 -27.875 C 14.191406 -28.039062 13.625 -28.132812 13.125 -28.15625 C 12.625 -28.1875 12.007812 -28.203125 11.28125 -28.203125 L 10.359375 -28.203125 Z M 10.359375 -19.171875 "/></g></g></g><g fill="#000000" fill-opacity="1"><g transform="translate(240.133662, 63.634446)"><g><path d="M 24.1875 -9.6875 L 8.65625 -9.6875 C 8.65625 -8.1875 9.140625 -7.070312 10.109375 -6.34375 C 11.085938 -5.625 12.144531 -5.265625 13.28125 -5.265625 C 14.476562 -5.265625 15.425781 -5.421875 16.125 -5.734375 C 16.820312 -6.054688 17.617188 -6.691406 18.515625 -7.640625 L 23.859375 -4.96875 C 21.628906 -1.238281 17.925781 0.625 12.75 0.625 C 9.507812 0.625 6.734375 -0.476562 4.421875 -2.6875 C 2.117188 -4.90625 0.96875 -7.570312 0.96875 -10.6875 C 0.96875 -13.8125 2.117188 -16.488281 4.421875 -18.71875 C 6.734375 -20.945312 9.507812 -22.0625 12.75 -22.0625 C 16.144531 -22.0625 18.90625 -21.078125 21.03125 -19.109375 C 23.164062 -17.148438 24.234375 -14.347656 24.234375 -10.703125 C 24.234375 -10.191406 24.21875 -9.851562 24.1875 -9.6875 Z M 8.859375 -13.78125 L 17 -13.78125 C 16.832031 -14.894531 16.394531 -15.75 15.6875 -16.34375 C 14.976562 -16.945312 14.066406 -17.25 12.953125 -17.25 C 11.722656 -17.25 10.742188 -16.925781 10.015625 -16.28125 C 9.296875 -15.644531 8.910156 -14.8125 8.859375 -13.78125 Z M 8.859375 -13.78125 "/></g></g></g><g fill="#000000" fill-opacity="1"><g transform="translate(265.323368, 63.634446)"><g><path d="M 11.828125 -22.0625 C 13.046875 -22.0625 14.253906 -21.921875 15.453125 -21.640625 C 16.648438 -21.359375 17.546875 -21.082031 18.140625 -20.8125 L 19.015625 -20.390625 L 16.59375 -15.546875 C 14.914062 -16.429688 13.328125 -16.875 11.828125 -16.875 C 10.992188 -16.875 10.398438 -16.785156 10.046875 -16.609375 C 9.703125 -16.429688 9.53125 -16.085938 9.53125 -15.578125 C 9.53125 -15.472656 9.539062 -15.363281 9.5625 -15.25 C 9.59375 -15.132812 9.648438 -15.03125 9.734375 -14.9375 C 9.816406 -14.84375 9.890625 -14.757812 9.953125 -14.6875 C 10.023438 -14.613281 10.144531 -14.535156 10.3125 -14.453125 C 10.488281 -14.367188 10.625 -14.304688 10.71875 -14.265625 C 10.8125 -14.222656 10.96875 -14.160156 11.1875 -14.078125 C 11.414062 -13.992188 11.582031 -13.929688 11.6875 -13.890625 C 11.800781 -13.847656 11.988281 -13.785156 12.25 -13.703125 C 12.519531 -13.617188 12.726562 -13.5625 12.875 -13.53125 C 13.726562 -13.28125 14.472656 -13 15.109375 -12.6875 C 15.753906 -12.382812 16.429688 -11.96875 17.140625 -11.4375 C 17.859375 -10.914062 18.410156 -10.25 18.796875 -9.4375 C 19.191406 -8.632812 19.390625 -7.71875 19.390625 -6.6875 C 19.390625 -1.8125 16.003906 0.625 9.234375 0.625 C 7.703125 0.625 6.242188 0.390625 4.859375 -0.078125 C 3.484375 -0.554688 2.488281 -1.03125 1.875 -1.5 L 0.96875 -2.25 L 3.96875 -7.3125 C 4.1875 -7.113281 4.476562 -6.878906 4.84375 -6.609375 C 5.207031 -6.347656 5.863281 -5.988281 6.8125 -5.53125 C 7.757812 -5.070312 8.582031 -4.84375 9.28125 -4.84375 C 10.8125 -4.84375 11.578125 -5.359375 11.578125 -6.390625 C 11.578125 -6.867188 11.378906 -7.238281 10.984375 -7.5 C 10.597656 -7.757812 9.9375 -8.054688 9 -8.390625 C 8.070312 -8.734375 7.34375 -9.039062 6.8125 -9.3125 C 5.476562 -10.007812 4.421875 -10.796875 3.640625 -11.671875 C 2.859375 -12.554688 2.46875 -13.722656 2.46875 -15.171875 C 2.46875 -17.335938 3.304688 -19.023438 4.984375 -20.234375 C 6.671875 -21.453125 8.953125 -22.0625 11.828125 -22.0625 Z M 11.828125 -22.0625 "/></g></g></g><g fill="#000000" fill-opacity="1"><g transform="translate(285.876156, 63.634446)"><g><path d="M 9.484375 -21.4375 L 9.484375 -11.234375 C 9.484375 -9.117188 9.800781 -7.613281 10.4375 -6.71875 C 11.082031 -5.832031 12.171875 -5.390625 13.703125 -5.390625 C 15.234375 -5.390625 16.316406 -5.832031 16.953125 -6.71875 C 17.597656 -7.613281 17.921875 -9.117188 17.921875 -11.234375 L 17.921875 -21.4375 L 25.3125 -21.4375 L 25.3125 -9.4375 C 25.3125 -5.875 24.382812 -3.304688 22.53125 -1.734375 C 20.6875 -0.160156 17.742188 0.625 13.703125 0.625 C 9.660156 0.625 6.710938 -0.160156 4.859375 -1.734375 C 3.015625 -3.304688 2.09375 -5.875 2.09375 -9.4375 L 2.09375 -21.4375 Z M 9.484375 -21.4375 "/></g></g></g><g fill="#000000" fill-opacity="1"><g transform="translate(313.279881, 63.634446)"><g><path d="M 2.5 0 L 2.5 -21.4375 L 9.90625 -21.4375 L 9.90625 -19.171875 L 9.984375 -19.171875 C 11.910156 -21.097656 13.957031 -22.0625 16.125 -22.0625 C 17.6875 -22.0625 19.148438 -21.738281 20.515625 -21.09375 C 21.878906 -20.457031 22.910156 -19.472656 23.609375 -18.140625 C 25.773438 -20.753906 28.140625 -22.0625 30.703125 -22.0625 C 32.992188 -22.0625 34.957031 -21.421875 36.59375 -20.140625 C 38.238281 -18.859375 39.0625 -16.851562 39.0625 -14.125 L 39.0625 0 L 31.671875 0 L 31.671875 -12.109375 C 31.671875 -13.253906 31.359375 -14.207031 30.734375 -14.96875 C 30.109375 -15.738281 29.164062 -16.125 27.90625 -16.125 C 26.820312 -16.125 25.992188 -15.796875 25.421875 -15.140625 C 24.847656 -14.484375 24.535156 -13.695312 24.484375 -12.78125 L 24.484375 0 L 17.09375 0 L 17.09375 -12.109375 C 17.09375 -13.253906 16.773438 -14.207031 16.140625 -14.96875 C 15.515625 -15.738281 14.578125 -16.125 13.328125 -16.125 C 12.179688 -16.125 11.320312 -15.769531 10.75 -15.0625 C 10.1875 -14.351562 9.90625 -13.507812 9.90625 -12.53125 L 9.90625 0 Z M 2.5 0 "/></g></g></g><g fill="#000000" fill-opacity="1"><g transform="translate(354.427243, 63.634446)"><g><path d="M 24.1875 -9.6875 L 8.65625 -9.6875 C 8.65625 -8.1875 9.140625 -7.070312 10.109375 -6.34375 C 11.085938 -5.625 12.144531 -5.265625 13.28125 -5.265625 C 14.476562 -5.265625 15.425781 -5.421875 16.125 -5.734375 C 16.820312 -6.054688 17.617188 -6.691406 18.515625 -7.640625 L 23.859375 -4.96875 C 21.628906 -1.238281 17.925781 0.625 12.75 0.625 C 9.507812 0.625 6.734375 -0.476562 4.421875 -2.6875 C 2.117188 -4.90625 0.96875 -7.570312 0.96875 -10.6875 C 0.96875 -13.8125 2.117188 -16.488281 4.421875 -18.71875 C 6.734375 -20.945312 9.507812 -22.0625 12.75 -22.0625 C 16.144531 -22.0625 18.90625 -21.078125 21.03125 -19.109375 C 23.164062 -17.148438 24.234375 -14.347656 24.234375 -10.703125 C 24.234375 -10.191406 24.21875 -9.851562 24.1875 -9.6875 Z M 8.859375 -13.78125 L 17 -13.78125 C 16.832031 -14.894531 16.394531 -15.75 15.6875 -16.34375 C 14.976562 -16.945312 14.066406 -17.25 12.953125 -17.25 C 11.722656 -17.25 10.742188 -16.925781 10.015625 -16.28125 C 9.296875 -15.644531 8.910156 -14.8125 8.859375 -13.78125 Z M 8.859375 -13.78125 "/></g></g></g></svg>