<svg xmlns="http://www.w3.org/2000/svg" xmlns:xlink="http://www.w3.org/1999/xlink" width="633" zoomAndPan="magnify" viewBox="0 0 474.75 374.999991" height="500" preserveAspectRatio="xMidYMid meet" version="1.0"><defs><g/><clipPath id="776c338da0"><path d="M 49.789062 0.0976562 L 424.589844 0.0976562 L 424.589844 374.898438 L 49.789062 374.898438 Z M 49.789062 0.0976562 " clip-rule="nonzero"/></clipPath><clipPath id="f1d5104e1c"><path d="M 113.503906 0.0976562 L 360.875 0.0976562 C 377.773438 0.0976562 393.980469 6.8125 405.929688 18.761719 C 417.878906 30.710938 424.589844 46.917969 424.589844 63.816406 L 424.589844 311.183594 C 424.589844 328.082031 417.878906 344.289062 405.929688 356.238281 C 393.980469 368.1875 377.773438 374.902344 360.875 374.902344 L 113.503906 374.902344 C 78.316406 374.902344 49.789062 346.375 49.789062 311.183594 L 49.789062 63.816406 C 49.789062 28.625 78.316406 0.0976562 113.503906 0.0976562 Z M 113.503906 0.0976562 " clip-rule="nonzero"/></clipPath></defs><g clip-path="url(#776c338da0)"><g clip-path="url(#f1d5104e1c)"><path fill="#141414" d="M 49.789062 0.0976562 L 424.589844 0.0976562 L 424.589844 374.902344 L 49.789062 374.902344 Z M 49.789062 0.0976562 " fill-opacity="1" fill-rule="nonzero"/></g></g><g fill="#b4d60e" fill-opacity="1"><g transform="translate(126.880993, 237.723538)"><g><path d="M 79.328125 -60.578125 C 85.804688 -53.472656 89.046875 -44.789062 89.046875 -34.53125 C 89.046875 -24.28125 85.804688 -15.625 79.328125 -8.5625 C 72.859375 -1.5 64.628906 2.03125 54.640625 2.03125 C 45.460938 2.03125 37.90625 -1.253906 31.96875 -7.828125 L 31.703125 -7.828125 L 31.703125 0 L 8.09375 0 L 8.09375 -116.03125 L 31.96875 -116.03125 L 31.96875 -62.609375 C 37.90625 -68.359375 45.460938 -71.234375 54.640625 -71.234375 C 64.628906 -71.234375 72.859375 -67.679688 79.328125 -60.578125 Z M 59.234375 -22.859375 C 62.203125 -25.878906 63.6875 -29.769531 63.6875 -34.53125 C 63.6875 -39.300781 62.132812 -43.210938 59.03125 -46.265625 C 55.925781 -49.328125 52.082031 -50.859375 47.5 -50.859375 C 43 -50.859375 39.195312 -49.328125 36.09375 -46.265625 C 32.988281 -43.210938 31.4375 -39.304688 31.4375 -34.546875 C 31.4375 -29.867188 32.941406 -26 35.953125 -22.9375 C 38.960938 -19.875 42.8125 -18.34375 47.5 -18.34375 C 52.351562 -18.34375 56.265625 -19.847656 59.234375 -22.859375 Z M 59.234375 -22.859375 "/></g></g></g><g fill="#b4d60e" fill-opacity="1"><g transform="translate(219.037496, 237.723538)"><g><path d="M 78.125 -31.296875 L 27.921875 -31.296875 C 27.921875 -26.441406 29.492188 -22.84375 32.640625 -20.5 C 35.796875 -18.164062 39.21875 -17 42.90625 -17 C 46.769531 -17 49.828125 -17.515625 52.078125 -18.546875 C 54.328125 -19.585938 56.890625 -21.632812 59.765625 -24.6875 L 77.046875 -16.0625 C 69.847656 -4 57.882812 2.03125 41.15625 2.03125 C 30.71875 2.03125 21.765625 -1.539062 14.296875 -8.6875 C 6.835938 -15.84375 3.109375 -24.457031 3.109375 -34.53125 C 3.109375 -44.613281 6.835938 -53.25 14.296875 -60.4375 C 21.765625 -67.632812 30.71875 -71.234375 41.15625 -71.234375 C 52.125 -71.234375 61.046875 -68.0625 67.921875 -61.71875 C 74.804688 -55.382812 78.25 -46.328125 78.25 -34.546875 C 78.25 -32.921875 78.207031 -31.835938 78.125 -31.296875 Z M 28.609375 -44.53125 L 54.90625 -44.53125 C 54.375 -48.125 52.957031 -50.882812 50.65625 -52.8125 C 48.363281 -54.75 45.421875 -55.71875 41.828125 -55.71875 C 37.867188 -55.71875 34.71875 -54.679688 32.375 -52.609375 C 30.039062 -50.546875 28.785156 -47.851562 28.609375 -44.53125 Z M 28.609375 -44.53125 "/></g></g></g><g fill="#b4d60e" fill-opacity="1"><g transform="translate(300.399677, 237.723538)"><g><path d="M 23.46875 -28.875 C 27.789062 -28.875 31.457031 -27.363281 34.46875 -24.34375 C 37.488281 -21.332031 39 -17.671875 39 -13.359375 C 39 -9.128906 37.488281 -5.503906 34.46875 -2.484375 C 31.457031 0.523438 27.789062 2.03125 23.46875 2.03125 C 19.25 2.03125 15.628906 0.523438 12.609375 -2.484375 C 9.597656 -5.503906 8.09375 -9.128906 8.09375 -13.359375 C 8.09375 -17.671875 9.597656 -21.332031 12.609375 -24.34375 C 15.628906 -27.363281 19.25 -28.875 23.46875 -28.875 Z M 23.46875 -28.875 "/></g></g></g></svg>